<svg width="17" height="17" viewBox="0 0 17 17" fill="none" xmlns="http://www.w3.org/2000/svg">
<path d="M1.0625 8.5C1.0625 10.4725 1.84609 12.3643 3.24089 13.7591C4.63569 15.1539 6.52745 15.9375 8.5 15.9375C10.4725 15.9375 12.3643 15.1539 13.7591 13.7591C15.1539 12.3643 15.9375 10.4725 15.9375 8.5C15.9375 6.52745 15.1539 4.63569 13.7591 3.24089C12.3643 1.84609 10.4725 1.0625 8.5 1.0625C6.52745 1.0625 4.63569 1.84609 3.24089 3.24089C1.84609 4.63569 1.0625 6.52745 1.0625 8.5ZM17 8.5C17 10.7543 16.1045 12.9163 14.5104 14.5104C12.9163 16.1045 10.7543 17 8.5 17C6.24566 17 4.08365 16.1045 2.48959 14.5104C0.895533 12.9163 0 10.7543 0 8.5C0 6.24566 0.895533 4.08365 2.48959 2.48959C4.08365 0.895533 6.24566 0 8.5 0C10.7543 0 12.9163 0.895533 14.5104 2.48959C16.1045 4.08365 17 6.24566 17 8.5ZM8.65512 5.304C7.36737 5.304 6.60769 6.2815 6.60769 7.96238V9.08862C6.60769 10.7578 7.35462 11.7045 8.65512 11.7045C9.69531 11.7045 10.3987 11.0819 10.4922 10.1979H11.8681V10.2967C11.7619 11.8352 10.4295 12.9179 8.64875 12.9179C6.42706 12.9179 5.17544 11.4984 5.17544 9.08969V7.94963C5.17544 5.54731 6.4515 4.08425 8.64981 4.08425C10.4359 4.08425 11.7683 5.20412 11.8681 6.817V6.9105H10.4922C10.3987 5.97656 9.67619 5.304 8.65512 5.304Z" fill="#0C0C0C"/>
</svg>
