<svg width="160" height="140" viewBox="0 0 160 140" fill="none" xmlns="http://www.w3.org/2000/svg">
<path d="M159.094 37.8306C158.633 37.2424 158.022 36.7624 157.312 36.4309C156.601 36.0993 155.812 35.926 155.012 35.9256H48.3625L40.2896 10.9127C37.1237 1.06327 29.6009 0 26.5155 0H4.99015C2.23117 0 0 2.0069 0 4.48336C0 6.95982 2.23369 8.96658 4.98999 8.96658H26.5128C27.1937 8.96658 29.2716 8.96658 30.6889 13.3664L58.4605 105.068C59.0635 107.002 61.0258 108.339 63.2644 108.339H131.099C133.205 108.339 135.084 107.153 135.795 105.372L159.705 41.9257C160.255 40.5509 160.027 39.0203 159.094 37.8306H159.094ZM127.587 99.3744H67.0519L51.1674 44.8945H147.917L127.587 99.3744ZM117.691 117.425C110.751 117.425 105.128 122.477 105.128 128.713C105.128 134.948 110.751 140 117.691 140C124.63 140 130.253 134.948 130.253 128.713C130.253 122.477 124.63 117.425 117.691 117.425ZM72.464 117.425C65.5243 117.425 59.9011 122.477 59.9011 128.713C59.9011 134.948 65.5243 140 72.464 140C79.4038 140 85.0269 134.948 85.0269 128.713C85.0269 122.477 79.4038 117.425 72.464 117.425Z" fill="#0C0C0C"/>
</svg>
