<svg width="160" height="140" viewBox="0 0 160 140" fill="none" xmlns="http://www.w3.org/2000/svg">
<path d="M160 12.7273V140H10V114.545H0V0H140V12.7273H160ZM120 12.7273C120 14.517 120.26 16.1742 120.781 17.6989C121.302 19.2235 122.005 20.5492 122.891 21.6761C123.776 22.803 124.844 23.7311 126.094 24.4602C127.344 25.1894 128.646 25.5208 130 25.4545V12.7273H120ZM10 25.4545C11.4062 25.4545 12.7083 25.1231 13.9062 24.4602C15.1042 23.7973 16.1458 22.9025 17.0312 21.7756C17.9167 20.6487 18.6458 19.2898 19.2188 17.6989C19.7917 16.108 20.0521 14.4508 20 12.7273H10V25.4545ZM10 76.3636C12.7604 76.3636 15.3385 77.0265 17.7344 78.3523C20.1302 79.678 22.2656 81.5009 24.1406 83.821C26.0156 86.1411 27.4479 88.8258 28.4375 91.875C29.4271 94.9242 29.9479 98.2386 30 101.818H110C110 98.3049 110.521 95.0237 111.562 91.9744C112.604 88.9252 114.036 86.2074 115.859 83.821C117.682 81.4347 119.792 79.6117 122.188 78.3523C124.583 77.0928 127.188 76.4299 130 76.3636V38.1818C127.24 38.1818 124.661 37.5189 122.266 36.1932C119.87 34.8674 117.734 33.0445 115.859 30.7244C113.984 28.4044 112.552 25.7197 111.562 22.6705C110.573 19.6212 110.052 16.3068 110 12.7273H30C30 16.2405 29.4792 19.5218 28.4375 22.571C27.3958 25.6203 25.9635 28.3381 24.1406 30.7244C22.3177 33.1108 20.2083 34.9337 17.8125 36.1932C15.4167 37.4527 12.8125 38.1155 10 38.1818V76.3636ZM130 89.0909C128.594 89.0909 127.292 89.4223 126.094 90.0852C124.896 90.7481 123.854 91.643 122.969 92.7699C122.083 93.8968 121.354 95.2557 120.781 96.8466C120.208 98.4375 119.948 100.095 120 101.818H130V89.0909ZM10 101.818H20C20 100.028 19.7396 98.3712 19.2188 96.8466C18.6979 95.322 17.9948 93.9962 17.1094 92.8693C16.224 91.7424 15.1562 90.8144 13.9062 90.0852C12.6562 89.3561 11.3542 89.0246 10 89.0909V101.818ZM150 25.4545H140V114.545H20V127.273H150V25.4545ZM35 63.6364C33.6458 63.6364 32.474 63.0066 31.4844 61.7472C30.4948 60.4877 30 58.9962 30 57.2727C30 55.5492 30.4948 54.0578 31.4844 52.7983C32.474 51.5388 33.6458 50.9091 35 50.9091C36.3542 50.9091 37.526 51.5388 38.5156 52.7983C39.5052 54.0578 40 55.5492 40 57.2727C40 58.9962 39.5052 60.4877 38.5156 61.7472C37.526 63.0066 36.3542 63.6364 35 63.6364ZM105 63.6364C103.646 63.6364 102.474 63.0066 101.484 61.7472C100.495 60.4877 100 58.9962 100 57.2727C100 55.5492 100.495 54.0578 101.484 52.7983C102.474 51.5388 103.646 50.9091 105 50.9091C106.354 50.9091 107.526 51.5388 108.516 52.7983C109.505 54.0578 110 55.5492 110 57.2727C110 58.9962 109.505 60.4877 108.516 61.7472C107.526 63.0066 106.354 63.6364 105 63.6364ZM70 89.0909C67.2396 89.0909 64.6615 88.428 62.2656 87.1023C59.8698 85.7765 57.7344 83.9536 55.8594 81.6335C53.9844 79.3134 52.5521 76.6288 51.5625 73.5795C50.5729 70.5303 50.0521 67.2159 50 63.6364V50.9091C50 47.3958 50.5208 44.1146 51.5625 41.0653C52.6042 38.0161 54.0365 35.2983 55.8594 32.9119C57.6823 30.5256 59.7917 28.7027 62.1875 27.4432C64.5833 26.1837 67.1875 25.5208 70 25.4545C72.7604 25.4545 75.3385 26.1174 77.7344 27.4432C80.1302 28.7689 82.2656 30.5919 84.1406 32.9119C86.0156 35.232 87.4479 37.9167 88.4375 40.9659C89.4271 44.0152 89.9479 47.3295 90 50.9091V63.6364C90 67.1496 89.4792 70.4309 88.4375 73.4801C87.3958 76.5294 85.9635 79.2472 84.1406 81.6335C82.3177 84.0199 80.2083 85.8428 77.8125 87.1023C75.4167 88.3617 72.8125 89.0246 70 89.0909ZM60 63.6364C60 65.4261 60.2604 67.0833 60.7812 68.608C61.3021 70.1326 62.0052 71.4583 62.8906 72.5852C63.776 73.7121 64.8438 74.6402 66.0938 75.3693C67.3438 76.0985 68.6458 76.4299 70 76.3636C71.4062 76.3636 72.7083 76.0322 73.9062 75.3693C75.1042 74.7064 76.1458 73.8116 77.0312 72.6847C77.9167 71.5578 78.6458 70.1989 79.2188 68.608C79.7917 67.017 80.0521 65.3598 80 63.6364V50.9091C80 49.1193 79.7396 47.4621 79.2188 45.9375C78.6979 44.4129 77.9948 43.0871 77.1094 41.9602C76.224 40.8333 75.1562 39.9053 73.9062 39.1761C72.6562 38.447 71.3542 38.1155 70 38.1818C68.5938 38.1818 67.2917 38.5133 66.0938 39.1761C64.8958 39.839 63.8542 40.7339 62.9688 41.8608C62.0833 42.9877 61.3542 44.3466 60.7812 45.9375C60.2083 47.5284 59.9479 49.1856 60 50.9091V63.6364Z" fill="#0C0C0C"/>
</svg>
