<svg width="160" height="140" viewBox="0 0 160 140" fill="none" xmlns="http://www.w3.org/2000/svg">
<path d="M11.4286 63.6307H79.9999V76.3567H11.4286V63.6307ZM0 31.8156H57.1428V44.5416H0V31.8156Z" fill="#0C0C0C"/>
<path d="M159.537 67.4862L142.394 22.9451C141.954 21.8002 141.222 20.8245 140.289 20.139C139.355 19.4535 138.261 19.0884 137.143 19.0891H120V6.36302C120 4.67544 119.398 3.05698 118.326 1.86369C117.255 0.670389 115.801 0 114.286 0H22.8573V12.726H108.571V92.6201C105.968 94.3037 103.689 96.5447 101.867 99.2138C100.044 101.883 98.7147 104.927 97.9543 108.171H62.0458C60.655 102.173 57.3473 96.9458 52.7429 93.469C48.1385 89.9921 42.5533 88.5046 37.0344 89.2852C31.5155 90.0657 26.4416 93.0609 22.764 97.7091C19.0864 102.357 17.0574 108.34 17.0574 114.534C17.0574 120.729 19.0864 126.711 22.764 131.36C26.4416 136.008 31.5155 139.003 37.0344 139.784C42.5533 140.564 48.1385 139.077 52.7429 135.6C57.3473 132.123 60.655 126.896 62.0458 120.897H97.9543C99.1974 126.358 102.04 131.202 106.033 134.662C110.026 138.122 114.941 140 120 140C125.059 140 129.974 138.122 133.967 134.662C137.96 131.202 140.803 126.358 142.046 120.897H154.286C155.801 120.897 157.255 120.227 158.326 119.034C159.398 117.84 160 116.222 160 114.534V69.9932C160 69.1312 159.843 68.2782 159.537 67.4862ZM40.0001 127.26C37.7397 127.26 35.5302 126.514 33.6507 125.116C31.7713 123.717 30.3065 121.73 29.4415 119.404C28.5765 117.079 28.3502 114.52 28.7911 112.052C29.2321 109.583 30.3206 107.315 31.9189 105.536C33.5172 103.756 35.5536 102.544 37.7705 102.053C39.9874 101.562 42.2853 101.814 44.3736 102.777C46.4619 103.74 48.2468 105.371 49.5026 107.464C50.7584 109.557 51.4287 112.017 51.4287 114.534C51.4256 117.909 50.2206 121.143 48.078 123.529C45.9354 125.915 43.0302 127.257 40.0001 127.26ZM120 31.8151H133.371L145.623 63.6302H120V31.8151ZM120 127.26C117.74 127.26 115.53 126.514 113.651 125.116C111.771 123.717 110.306 121.73 109.441 119.404C108.576 117.079 108.35 114.52 108.791 112.052C109.232 109.583 110.32 107.315 111.919 105.536C113.517 103.756 115.553 102.544 117.77 102.053C119.987 101.562 122.285 101.814 124.374 102.777C126.462 103.74 128.247 105.371 129.502 107.464C130.758 109.557 131.429 112.017 131.429 114.534C131.426 117.909 130.22 121.143 128.078 123.529C125.935 125.915 123.03 127.257 120 127.26ZM148.571 108.171H142.046C140.787 102.721 137.94 97.8898 133.95 94.4352C129.96 90.9807 125.054 89.098 120 89.0823V76.3563H148.571V108.171Z" fill="#0C0C0C"/>
</svg>
