<svg width="125" height="140" viewBox="0 0 125 140" fill="none" xmlns="http://www.w3.org/2000/svg">
<path d="M121.99 105.445C120.081 103.943 99.2025 88.3826 96.6435 86.6307C95.5286 85.8661 94.1682 85.4925 92.6888 85.4925C90.7807 85.4925 88.6679 86.1151 86.6059 87.3319C84.5963 88.5181 78.5094 92.3999 75.5311 94.307C72.9076 92.2426 66.7448 86.9518 57.0343 76.0577C47.3845 65.2466 42.621 58.2826 40.7674 55.3268C42.4651 51.9911 45.9247 45.1689 46.9772 42.9232C48.9711 38.6897 49.1973 34.4626 47.5794 31.6119C46.0612 28.9249 32.2343 5.42411 30.8076 3.2134C29.4647 1.1272 27.0537 0 24.4381 0C22.3741 0 20.1853 0.69904 18.2868 2.18013C18.1036 2.32649 -0.24123 17.2335 0.00240539 25.7115C0.678858 49.527 21.3273 77.5148 38.5297 96.8017C55.7322 116.089 80.7059 139.238 102.039 140H102.214C109.683 140 122.812 119.699 122.939 119.498C126.383 113.983 125.127 107.91 121.99 105.445ZM116.604 114.409C111.659 122.085 104.639 130.102 101.891 131.249C87.2686 130.481 66.7506 116.078 44.0419 90.6221C21.3351 65.164 8.48675 42.194 7.80847 25.8605C8.79471 22.7716 15.9477 14.8528 22.7344 9.35225C23.2373 8.96341 23.8571 8.7384 24.4359 8.7384C24.5645 8.7384 24.6717 8.75151 24.7556 8.76899C26.9483 12.3406 38.7188 32.3115 40.855 36.0446C40.8628 36.4378 40.744 37.4359 40.0754 38.8603C39.364 40.3785 37.1479 44.8043 33.9962 50.9952L31.5442 55.812L34.388 60.3514C36.5086 63.7265 41.5528 71.0642 51.5184 82.2357C61.5269 93.4575 68.0505 99.0936 71.0501 101.457L75.1003 104.644L79.3981 101.892C83.5634 99.2244 88.5958 96.0285 90.2331 95.0653C91.5468 94.2898 92.4453 94.2285 92.6889 94.2285C92.7279 94.2285 92.7612 94.2285 92.7884 94.233C95.7724 96.3323 113.977 109.878 117.191 112.349C117.243 112.699 117.195 113.459 116.604 114.409ZM78.56 51.5021C79.0628 52.0723 79.7706 52.4199 80.5561 52.3959L81.9828 52.3586C82.0099 52.3586 82.0294 52.3456 82.0607 52.3436L110.018 52.4811C111.591 52.4396 112.895 50.9803 112.932 49.2129L112.934 46.9716C112.696 44.892 111.236 43.673 109.661 43.7124L91.2056 43.6577L123.116 7.9412C124.638 6.23511 124.638 3.46721 123.116 1.76112C121.594 0.0572065 119.126 0.0572065 117.604 1.76112L85.6059 37.576L85.7131 16.4364C85.7482 14.6715 84.4989 13.1336 82.9241 13.1751L80.9243 13.1772C79.3456 13.2209 78.0416 14.2717 78.0084 16.0368L77.9285 47.5766C77.9285 47.6071 78.0356 47.6289 78.0356 47.6595L77.8797 49.2585C77.8641 50.1454 78.0492 50.934 78.56 51.5021Z" fill="#0C0C0C"/>
</svg>
