<svg width="17" height="17" viewBox="0 0 17 17" fill="none" xmlns="http://www.w3.org/2000/svg">
<path fill-rule="evenodd" clip-rule="evenodd" d="M1.7 8.5C1.70012 7.19138 2.07784 5.9106 2.78782 4.81133C3.4978 3.71205 4.5099 2.84099 5.70266 2.30266C6.89542 1.76433 8.21817 1.5816 9.51221 1.77639C10.8062 1.97119 12.0166 2.53523 12.998 3.40084C13.9794 4.26646 14.6902 5.39687 15.0451 6.65644C15.4001 7.91601 15.384 9.25124 14.9988 10.5019C14.6137 11.7526 13.8759 12.8655 12.8739 13.7073C11.8719 14.549 10.6484 15.0837 9.35 15.2473V10.2H11.05C11.2754 10.2 11.4916 10.1104 11.651 9.95104C11.8104 9.79163 11.9 9.57543 11.9 9.35C11.9 9.12457 11.8104 8.90837 11.651 8.74896C11.4916 8.58955 11.2754 8.5 11.05 8.5H9.35V6.8C9.35 6.57457 9.43955 6.35837 9.59896 6.19896C9.75837 6.03955 9.97457 5.95 10.2 5.95H10.625C10.8504 5.95 11.0666 5.86045 11.226 5.70104C11.3854 5.54164 11.475 5.32543 11.475 5.1C11.475 4.87457 11.3854 4.65837 11.226 4.49896C11.0666 4.33955 10.8504 4.25 10.625 4.25H10.2C9.5237 4.25 8.8751 4.51866 8.39688 4.99688C7.91866 5.4751 7.65 6.1237 7.65 6.8V8.5H5.95C5.72457 8.5 5.50837 8.58955 5.34896 8.74896C5.18955 8.90837 5.1 9.12457 5.1 9.35C5.1 9.57543 5.18955 9.79163 5.34896 9.95104C5.50837 10.1104 5.72457 10.2 5.95 10.2H7.65V15.2473C6.0067 15.0401 4.4955 14.2403 3.4 12.998C2.30451 11.7557 1.70003 10.1563 1.7 8.5ZM8.5 17C13.1946 17 17 13.1946 17 8.5C17 3.80545 13.1946 0 8.5 0C3.80545 0 0 3.80545 0 8.5C0 13.1946 3.80545 17 8.5 17Z" fill="#0C0C0C"/>
</svg>
