<svg width="17" height="17" viewBox="0 0 17 17" fill="none" xmlns="http://www.w3.org/2000/svg">
<path d="M4.93 0H12.07C14.79 0 17 2.21 17 4.93V12.07C17 13.3775 16.4806 14.6315 15.556 15.556C14.6315 16.4806 13.3775 17 12.07 17H4.93C2.21 17 0 14.79 0 12.07V4.93C0 3.62248 0.519409 2.36852 1.44396 1.44396C2.36852 0.519409 3.62248 0 4.93 0ZM4.76 1.7C3.94844 1.7 3.17011 2.02239 2.59625 2.59625C2.02239 3.17011 1.7 3.94844 1.7 4.76V12.24C1.7 13.9315 3.0685 15.3 4.76 15.3H12.24C13.0516 15.3 13.8299 14.9776 14.4037 14.4037C14.9776 13.8299 15.3 13.0516 15.3 12.24V4.76C15.3 3.0685 13.9315 1.7 12.24 1.7H4.76ZM12.9625 2.975C13.2443 2.975 13.5145 3.08694 13.7138 3.2862C13.9131 3.48546 14.025 3.75571 14.025 4.0375C14.025 4.31929 13.9131 4.58954 13.7138 4.7888C13.5145 4.98806 13.2443 5.1 12.9625 5.1C12.6807 5.1 12.4105 4.98806 12.2112 4.7888C12.0119 4.58954 11.9 4.31929 11.9 4.0375C11.9 3.75571 12.0119 3.48546 12.2112 3.2862C12.4105 3.08694 12.6807 2.975 12.9625 2.975ZM8.5 4.25C9.62717 4.25 10.7082 4.69777 11.5052 5.4948C12.3022 6.29183 12.75 7.37283 12.75 8.5C12.75 9.62717 12.3022 10.7082 11.5052 11.5052C10.7082 12.3022 9.62717 12.75 8.5 12.75C7.37283 12.75 6.29183 12.3022 5.4948 11.5052C4.69777 10.7082 4.25 9.62717 4.25 8.5C4.25 7.37283 4.69777 6.29183 5.4948 5.4948C6.29183 4.69777 7.37283 4.25 8.5 4.25ZM8.5 5.95C7.8237 5.95 7.1751 6.21866 6.69688 6.69688C6.21866 7.1751 5.95 7.8237 5.95 8.5C5.95 9.1763 6.21866 9.82491 6.69688 10.3031C7.1751 10.7813 7.8237 11.05 8.5 11.05C9.1763 11.05 9.82491 10.7813 10.3031 10.3031C10.7813 9.82491 11.05 9.1763 11.05 8.5C11.05 7.8237 10.7813 7.1751 10.3031 6.69688C9.82491 6.21866 9.1763 5.95 8.5 5.95Z" fill="#0C0C0C"/>
</svg>
