<svg width="200" height="50" viewBox="0 0 200 50" fill="none" xmlns="http://www.w3.org/2000/svg">
<g clip-path="url(#clip0_101_2573)">
<path d="M0.220215 22.768L2.35689 21.5757L3.2247 22.9071C3.2247 22.9071 3.35511 23.6302 2.69715 23.9704C2.0382 24.3107 0.220215 22.768 0.220215 22.768Z" fill="#726357"/>
<path d="M26.9723 21.8293L28.1912 22.8327L26.8125 23.5599L26.9723 21.8293Z" fill="#746657"/>
<path d="M22.4458 25.4785C22.4458 25.4785 21.0014 24.7138 20.3964 26.4312C19.7914 28.1485 23.448 26.4637 22.4458 25.5557" fill="#E0A56E"/>
<path d="M12.9001 2.89492C12.9001 2.89492 15.0025 0.181261 17.7059 3.01578C20.4094 5.85029 26.0301 11.1892 26.0301 11.1892L26.6106 11.825C26.6106 11.825 26.5194 11.6158 25.9683 12.2637C25.4172 12.9117 23.4649 15.4273 24.216 16.8278C24.9671 18.2283 22.7893 19.3434 22.7893 19.3434C22.7893 19.3434 21.8959 20.0696 21.3292 21.1583C20.7614 22.247 18.7434 26.4647 18.8768 27.8043L14.1023 30.0518L10.6723 28.302C10.6723 28.302 9.5711 22.0916 9.42009 21.3137C9.26908 20.5357 8.30616 20.1214 7.94923 19.7324C7.5923 19.3434 5.75372 17.9175 5.72136 17.165C5.689 16.4134 5.62232 15.2465 5.46837 14.0796C5.46837 14.0796 5.12125 13.1331 4.07007 12.6273C4.07007 12.6273 3.48369 12.1216 4.12302 11.5772C4.76236 11.0328 12.9001 2.89492 12.9001 2.89492Z" fill="#EAB880"/>
<path d="M22.1763 25.3759C22.1763 25.3759 21.3497 25.0773 20.8584 25.6572C20.8584 25.6572 20.5133 25.9873 20.4554 26.2778C20.3975 26.5682 20.7113 25.5323 22.1763 25.3759Z" fill="#E5B783"/>
<path d="M7.65698 26.287C7.65698 26.287 9.12 25.5801 9.3014 27.0913L7.65698 26.287Z" fill="#DEA36C"/>
<path d="M14.3906 0.488932C14.3906 0.488932 15.1231 -0.275808 15.7173 0.515337C15.7173 0.515337 15.1084 0.125351 14.3906 0.488932Z" fill="#E0A56E"/>
<path d="M15.2169 7.58592C16.6411 7.58592 17.7958 6.44827 17.7958 5.04491C17.7958 3.64155 16.6411 2.50391 15.2169 2.50391C13.7926 2.50391 12.6379 3.64155 12.6379 5.04491C12.6379 6.44827 13.7926 7.58592 15.2169 7.58592Z" fill="#E8BC91"/>
<path d="M13.4833 3.40661C13.4706 3.3538 13.3617 3.28169 13.3245 3.31927C13.1048 3.54371 12.5802 4.30134 12.6351 5.18186C12.7028 6.27159 13.8706 8.31089 16.0367 7.35319C16.0367 7.35319 16.6506 7.20796 17.1379 6.44322C17.6223 5.68458 14.6884 8.27941 13.4833 3.40661Z" fill="#DEA36C"/>
<path d="M15.8907 2.59106C15.8907 2.59106 16.9086 2.76879 17.4675 3.80368C18.0264 4.83856 17.7979 6.14563 17.1174 6.76209C16.4369 7.37957 15.4504 7.57457 15.4504 7.57457C15.4504 7.57457 19.714 5.56979 15.8907 2.59106Z" fill="#F7D9AE"/>
<path d="M10.2104 12.1742C11.6206 12.1742 12.7638 11.0656 12.7638 9.69818C12.7638 8.33072 11.6206 7.22217 10.2104 7.22217C8.80018 7.22217 7.65698 8.33072 7.65698 9.69818C7.65698 11.0656 8.80018 12.1742 10.2104 12.1742Z" fill="#E8BC91"/>
<path d="M8.33741 8.38723C8.3276 8.33442 8.38742 7.96373 8.35016 8.00232C8.13051 8.22677 7.51863 8.98744 7.57354 9.86695C7.6412 10.9567 8.80906 12.996 10.9752 12.0383C10.9752 12.0383 11.589 11.893 12.0763 11.1283C12.5617 10.3697 9.58764 14.8799 8.33741 8.38723Z" fill="#DEA36C"/>
<path d="M10.8731 7.26074C10.8731 7.26074 11.891 7.43847 12.4499 8.47336C13.0088 9.50824 12.7804 10.8153 12.0998 11.4318C11.4193 12.0493 10.4329 12.2442 10.4329 12.2442C10.4329 12.2442 14.6964 10.2395 10.8731 7.26074Z" fill="#F7D9AE"/>
<path d="M23.5099 10.1401C23.5099 11.5508 22.3725 12.6944 20.9693 12.6944C19.5661 12.6944 18.4286 11.5508 18.4286 10.1401C18.4286 9.15706 18.9816 8.30294 19.7916 7.87639C20.1436 7.69054 20.5447 7.58594 20.9693 7.58594C22.3725 7.58594 23.5099 8.72949 23.5099 10.1401Z" fill="#E8BC91"/>
<path d="M21.6192 7.71094C21.6192 7.71094 22.6371 7.88867 23.196 8.92355C23.7549 9.95844 23.5265 11.2655 22.8459 11.882C22.1654 12.4984 21.179 12.6944 21.179 12.6944C21.179 12.6944 25.4415 10.6886 21.6192 7.71094Z" fill="#F7D9AE"/>
<path d="M21.3672 12.5449C21.3672 12.5449 19.156 10.7452 19.9679 7.75635C19.9679 7.75635 19.0315 8.12805 18.7402 8.76483C18.449 9.4016 17.9195 10.8864 19.1187 11.9782C20.317 13.0709 21.3672 12.5449 21.3672 12.5449Z" fill="#E0A56E"/>
<path d="M13.5942 16.7981C13.5942 16.7981 13.8698 9.48585 13.8943 9.09688C13.9198 8.70791 13.9443 6.01151 14.0698 5.82972C14.1443 5.72207 14.1306 5.49458 14.1061 5.32802C14.0914 5.22138 14.1689 5.1249 14.2728 5.11982C15.2573 5.07615 19.4895 4.9228 19.5777 5.51793C19.6777 6.19229 19.6032 7.281 19.5777 8.65509C19.5522 10.0292 19.6032 12.752 19.4777 13.4263C19.3522 14.1007 19.3277 17.1089 19.3277 17.1089L13.5942 16.7981Z" fill="#825444"/>
<path d="M14.1033 5.24487C15.1182 5.89384 16.3174 6.20461 17.5029 6.22695C18.2158 6.24523 18.9365 6.13352 19.6288 5.97102L19.2817 6.06649C19.2209 6.08375 19.0787 6.12133 19.0209 6.13656C17.3607 6.49608 15.5143 6.26554 14.1033 5.24487Z" fill="#704A42"/>
<path opacity="0.28" d="M14.2446 5.47046C14.2446 5.47046 16.1136 6.62823 17.4158 6.38652C17.4158 6.38652 16.3646 7.16345 14.2446 5.94474V5.47046Z" fill="#F9F9F9"/>
<path opacity="0.82" d="M13.8325 11.83C13.8325 11.83 17.2106 9.72664 19.4855 12.1641C19.4855 12.1641 17.7029 12.5266 16.1751 11.6969C16.1751 11.6969 14.97 11.4095 13.8325 11.83Z" fill="#5B403B"/>
<path d="M13.9365 6.51636C14.9347 6.97337 15.9889 7.38265 17.0871 7.44156C17.696 7.44359 18.305 7.35625 18.908 7.26688C19.1502 7.2293 19.3905 7.18258 19.6288 7.12165C18.809 7.38266 17.9422 7.51875 17.0851 7.53906C15.9732 7.48726 14.9063 7.05462 13.9365 6.51636Z" fill="#2D140A"/>
<path d="M19.0776 7.97374C17.041 8.83801 13.9365 7.00588 13.9365 7.00588C13.9365 7.00588 14.0149 6.04107 14.0698 5.83084C14.1238 5.62062 14.1041 5.76585 14.1238 5.49773C14.1238 5.49773 14.059 5.27938 14.1287 5.21032C14.1993 5.14126 14.1659 5.12501 14.3865 5.11587C14.6072 5.10673 16.6713 5.05493 16.7605 5.05493C16.8498 5.05493 17.9558 5.10977 17.9558 5.10977C17.9558 5.10977 19.3032 5.15649 19.5277 5.4307C19.5277 5.4307 19.5865 5.47031 19.6042 5.75772C19.6218 6.04513 19.6228 6.96628 19.6101 7.38978C19.5973 7.81328 19.5807 10.5208 19.5807 10.5208L19.5581 11.9092C19.5581 11.9092 19.5414 12.875 19.513 13.1309C19.4846 13.3858 19.3953 14.0378 19.4091 14.1424C19.4228 14.246 19.3424 16.07 19.3424 16.07L19.3267 17.111L13.5933 16.8002C13.5933 16.8002 13.6511 14.8635 13.6629 14.7599C13.6747 14.6563 13.7364 13.0446 13.7403 12.9369C13.7443 12.8293 13.8315 10.007 13.8315 10.007C13.8315 10.007 13.9453 7.97983 13.9325 7.76453C13.9188 7.54821 13.9365 6.89112 13.9365 6.89112" stroke="#2D140A" stroke-width="0.0493584" stroke-miterlimit="10"/>
<path d="M13.9199 8.86262C15.3967 8.10194 17.3853 7.59415 18.9875 8.18725C19.2209 8.2817 19.4445 8.40053 19.6455 8.55185C17.8962 7.67844 15.684 8.29389 13.9199 8.86262Z" fill="#2D140A"/>
<g opacity="0.39">
<path d="M13.8738 10.386C14.6533 9.69033 15.7133 9.14495 16.7694 9.33588C17.3019 9.43236 17.7255 9.79899 18.1569 10.1108C18.5737 10.4287 18.9983 10.7486 19.3483 11.1477C18.9443 10.8136 18.5031 10.5343 18.0706 10.2418C17.6951 10.0052 17.1773 9.59587 16.7322 9.53596C15.7271 9.35112 14.719 9.84165 13.8738 10.386Z" fill="white"/>
</g>
<g opacity="0.25">
<path d="M13.8384 10.4365C14.6287 9.76315 15.674 9.26247 16.7252 9.45847C17.2508 9.55699 17.6695 9.91752 18.1009 10.2161C18.5226 10.5167 18.9413 10.8224 19.3482 11.1464C18.8962 10.8945 18.4549 10.6254 18.0176 10.3502C17.5861 10.0942 17.188 9.74893 16.6869 9.65753C15.6936 9.46558 14.6885 9.91651 13.8384 10.4365Z" fill="white"/>
</g>
<path d="M13.8384 10.4477C13.8384 10.4477 18.4079 8.94361 19.5591 9.41078" stroke="#3B2119" stroke-width="0.197434" stroke-miterlimit="10"/>
<path d="M15.4966 10.6855C16.1545 10.2427 17.039 10.3656 17.6901 10.7606C17.9108 10.8917 18.1128 11.0542 18.301 11.2299C18.1932 11.1608 18.0902 11.0856 17.9833 11.0166C17.2538 10.5474 16.3124 10.2955 15.4966 10.6855Z" fill="#3B2119"/>
<g opacity="0.2">
<path d="M15.0329 11.4512C16.0145 11.4116 18.5297 11.4339 19.2523 12.1022C19.7269 12.6486 18.7758 13.1919 18.3708 13.3727C17.0274 13.9587 15.2182 13.8896 14.2073 12.6953C15.4565 13.72 17.4491 13.5941 18.7179 12.7136C18.8258 12.6272 18.9395 12.5257 18.9993 12.4109C19.0003 12.4129 18.9974 12.3987 18.9768 12.3764C18.8905 12.289 18.7689 12.2362 18.6463 12.1865C18.2845 12.0392 17.8795 11.9549 17.4795 11.8696C16.6734 11.7081 15.8537 11.5863 15.0329 11.4512Z" fill="white"/>
</g>
<g opacity="0.51">
<path d="M16.6988 11.5955C17.2871 11.6351 18.861 11.7366 19.1483 12.3216C19.2542 12.6537 18.8953 12.8995 18.6658 13.0498C17.8137 13.6246 16.7027 13.8054 15.731 13.4916C16.7713 13.7424 17.9196 13.5078 18.7786 12.8507C18.8855 12.7725 18.9835 12.6781 19.0424 12.5684C19.3718 11.9103 17.1018 11.6523 16.6988 11.5955Z" fill="white"/>
</g>
<path d="M13.8196 11.9144C14.5011 11.6301 15.2738 11.5183 16.0014 11.6697C16.2475 11.7174 16.4789 11.8179 16.7084 11.8982C17.6242 12.2425 18.6077 12.4588 19.5775 12.2516C19.3412 12.3207 19.097 12.3613 18.8509 12.3816C18.1086 12.4354 17.3712 12.2425 16.676 11.9947C16.4416 11.9094 16.22 11.8098 15.9827 11.7611C15.2669 11.6047 14.5138 11.689 13.8196 11.9144Z" fill="#3B2119"/>
<path d="M13.8196 11.8788C14.4109 11.7295 15.0335 11.6077 15.6454 11.693C16.0092 11.7661 16.3465 11.9255 16.7035 12.02C17.6291 12.2942 18.6381 12.5166 19.5775 12.1896C19.351 12.2851 19.1108 12.348 18.8656 12.3775C18.1282 12.4577 17.3889 12.3023 16.6829 12.0931C16.3299 11.9956 15.9906 11.8331 15.6346 11.758C15.0316 11.6645 14.4148 11.7671 13.8196 11.8788Z" fill="#3B2119"/>
<path d="M13.7021 12.7837C14.6974 12.7908 15.6947 12.9076 16.6517 13.2123C17.1253 13.3677 17.5391 13.6541 18.0265 13.7637C18.4981 13.8826 18.9914 13.9262 19.4856 13.8988C18.756 14.0644 17.9608 13.9983 17.2675 13.6896C17.1499 13.6348 16.8812 13.5048 16.7625 13.4662C15.777 13.1117 14.7308 12.9635 13.7021 12.7837Z" fill="#330900"/>
<path d="M13.658 15.6264C15.0729 14.6037 16.9498 14.1802 18.6314 14.6342C18.8707 14.7042 19.1041 14.7916 19.3267 14.9013C19.0835 14.8556 18.8442 14.8089 18.603 14.7814C16.9145 14.5661 15.2239 14.9703 13.658 15.6264Z" fill="#330900"/>
<path d="M15.3967 14.8413C16.0125 14.564 16.7401 14.3832 17.4 14.5894C16.7185 14.5264 16.0576 14.6971 15.3967 14.8413Z" fill="#774B3F"/>
<path d="M13.6638 16.7039C15.2092 16.1098 17.8009 15.5461 19.3217 16.3586C17.6802 15.8193 15.3435 16.3738 13.6638 16.7039Z" fill="#330900"/>
<path d="M15.4045 19.1862C15.4045 19.1862 18.7375 12.7341 18.9238 12.3949C19.1101 12.0567 20.2711 9.64165 20.4604 9.53502C20.5732 9.47205 20.6565 9.26081 20.7055 9.10034C20.7369 8.99777 20.8477 8.94597 20.9428 8.98863C21.8469 9.39486 25.7182 11.1721 25.5456 11.748C25.3515 12.4 24.8239 13.3455 24.2219 14.5703C23.6198 15.7951 22.5157 18.2671 22.1185 18.8165C21.7214 19.3659 20.43 22.0603 20.43 22.0603L15.4045 19.1862Z" fill="#825444"/>
<path d="M20.7368 9.02515C21.3752 10.0682 22.3234 10.8898 23.3804 11.4473C24.0139 11.7865 24.7091 12.012 25.4004 12.1786L25.0484 12.1075C24.9866 12.0953 24.8435 12.0648 24.7837 12.0526C23.1392 11.624 21.5762 10.581 20.7368 9.02515Z" fill="#704A42"/>
<path opacity="0.28" d="M20.7684 9.29102C20.7684 9.29102 21.9608 11.179 23.2345 11.5507C23.2345 11.5507 21.9608 11.7731 20.5684 9.71858L20.7684 9.29102Z" fill="#F9F9F9"/>
<path opacity="0.82" d="M17.7146 14.825C17.7146 14.825 21.6408 14.4624 22.6577 17.6839C22.6577 17.6839 20.9015 17.2035 19.8768 15.7654C19.8768 15.7654 18.9148 14.9611 17.7146 14.825Z" fill="#5B403B"/>
<path d="M20.0503 10.0923C20.7553 10.9545 21.531 11.8005 22.4929 12.351C23.0401 12.6282 23.6245 12.8252 24.204 13.0172C24.4374 13.0934 24.6737 13.1604 24.9139 13.2122C24.0658 13.0761 23.2293 12.8059 22.4498 12.4363C21.4731 11.8868 20.6955 11.0155 20.0503 10.0923Z" fill="#2D140A"/>
<path d="M24.0602 13.73C21.8637 13.5857 19.8447 10.5329 19.8447 10.5329C19.8447 10.5329 20.3222 9.70111 20.4605 9.53658C20.5978 9.37206 20.5184 9.49393 20.6488 9.26136C20.6488 9.26136 20.6821 9.03589 20.7753 9.00543C20.8674 8.97496 20.8449 8.94551 21.0469 9.03793C21.2489 9.13034 23.1277 10.017 23.2081 10.0576C23.2885 10.0982 24.2602 10.6476 24.2602 10.6476C24.2602 10.6476 25.4526 11.2996 25.5389 11.647C25.5389 11.647 25.5752 11.7099 25.4693 11.975C25.3634 12.2411 24.9761 13.0708 24.7858 13.4466C24.5956 13.8224 23.4385 16.2496 23.4385 16.2496L22.8325 17.4876C22.8325 17.4876 22.4099 18.3489 22.2765 18.5652C22.1432 18.7815 21.7882 19.3279 21.7568 19.4284C21.7254 19.528 20.8831 21.1326 20.8831 21.1326L20.4301 22.0619L15.4047 19.1867C15.4047 19.1867 16.2735 17.4714 16.3274 17.383C16.3813 17.2957 17.1167 15.8728 17.1658 15.7784C17.2148 15.6829 18.4846 13.1836 18.4846 13.1836C18.4846 13.1836 19.4427 11.4124 19.5211 11.2113C19.6005 11.0112 19.8928 10.4283 19.8928 10.4283" stroke="#2D140A" stroke-width="0.0493584" stroke-miterlimit="10"/>
<path d="M19.0454 12.1957C20.6947 12.1795 22.6971 12.6233 23.8885 13.8816C24.0581 14.0726 24.2101 14.2807 24.3268 14.5072C23.1246 12.931 20.8703 12.4811 19.0454 12.1957Z" fill="#2D140A"/>
<g opacity="0.39">
<path d="M18.3618 13.5441C19.3561 13.271 20.5397 13.2608 21.4094 13.9098C21.8478 14.2378 22.0743 14.7588 22.3302 15.2341C22.5714 15.7094 22.8176 16.1887 22.9646 16.7057C22.742 16.2223 22.4636 15.7713 22.1978 15.3133C21.9595 14.9294 21.6673 14.3282 21.2918 14.0723C20.4652 13.4517 19.3512 13.4375 18.3618 13.5441Z" fill="white"/>
</g>
<g opacity="0.25">
<path d="M18.3081 13.5736C19.3034 13.3258 20.4546 13.3482 21.3175 14.0002C21.748 14.3262 21.9725 14.8401 22.2353 15.3042C22.4883 15.7653 22.7354 16.2304 22.9649 16.7057C22.6648 16.2741 22.3804 15.8323 22.1039 15.3875C21.8244 14.962 21.6117 14.4714 21.1988 14.1627C20.3859 13.5401 19.2916 13.4914 18.3081 13.5736Z" fill="white"/>
</g>
<path d="M18.303 13.584C18.303 13.584 23.047 14.299 23.8864 15.2404" stroke="#3B2119" stroke-width="0.197434" stroke-miterlimit="10"/>
<path d="M19.6946 14.5486C20.4732 14.448 21.2164 14.9579 21.6361 15.6089C21.7793 15.8272 21.892 16.0638 21.9872 16.3076C21.9185 16.1969 21.8577 16.0831 21.792 15.9724C21.3331 15.2189 20.5928 14.5669 19.6946 14.5486Z" fill="#3B2119"/>
<g opacity="0.2">
<path d="M18.9542 15.0271C19.8543 15.4354 22.1067 16.5942 22.4744 17.5224C22.6715 18.2293 21.587 18.2861 21.1458 18.2658C19.6906 18.1846 18.0913 17.3041 17.6863 15.7725C18.3776 17.2594 20.223 18.0485 21.7361 17.8301C21.8694 17.8017 22.0145 17.7611 22.1165 17.6849C22.1165 17.6869 22.1195 17.6727 22.1106 17.6443C22.0704 17.5265 21.9822 17.4239 21.8939 17.3234C21.6311 17.0278 21.3017 16.7678 20.9781 16.5099C20.3221 16.0011 19.6357 15.5207 18.9542 15.0271Z" fill="white"/>
</g>
<g opacity="0.51">
<path d="M20.3914 15.9116C20.9287 16.2 23.3547 17.7133 21.7504 18.0819C20.6816 18.279 19.5137 17.954 18.7205 17.1801C19.55 17.8768 20.6816 18.1855 21.7318 17.9824C21.8612 17.9611 21.9887 17.9194 22.0887 17.8484C22.6634 17.4035 20.7306 16.1442 20.3914 15.9116Z" fill="white"/>
</g>
<path d="M17.6675 14.895C18.6539 14.9539 19.6257 15.4079 20.2729 16.1879C20.9514 16.912 21.7447 17.5518 22.7047 17.8047C22.4625 17.76 22.2262 17.6859 21.9957 17.5924C21.3054 17.304 20.7239 16.7972 20.2023 16.26C20.0277 16.0782 19.8699 15.8873 19.6767 15.7359C19.1001 15.2718 18.3872 15.0057 17.6675 14.895Z" fill="#3B2119"/>
<path d="M17.6824 14.8625C18.2766 14.9966 18.8885 15.1682 19.4023 15.5217C19.6984 15.7522 19.9348 16.0477 20.2162 16.2945C20.933 16.9597 21.7469 17.6168 22.7304 17.7478C22.4862 17.7306 22.243 17.6788 22.0106 17.5945C21.3134 17.3325 20.7143 16.8592 20.1671 16.3504C19.8906 16.1036 19.6543 15.804 19.366 15.5745C18.863 15.218 18.2658 15.0311 17.6824 14.8625Z" fill="#3B2119"/>
<path d="M17.1948 15.6233C18.0871 16.0803 18.9344 16.6358 19.6669 17.3437C20.0267 17.6981 20.2778 18.143 20.671 18.4619C21.0446 18.7828 21.4701 19.0448 21.9271 19.2439C21.2015 19.0621 20.5131 18.6426 20.0208 18.0516C19.9385 17.949 19.7512 17.7113 19.661 17.622C18.9226 16.8583 18.045 16.2509 17.1948 15.6233Z" fill="#330900"/>
<path d="M15.9565 18.1604C17.6608 17.8811 19.5278 18.3493 20.8496 19.5182C21.0349 19.6888 21.2085 19.8737 21.3625 20.0727C21.1624 19.9224 20.9683 19.7711 20.7623 19.638C19.3327 18.6814 17.6412 18.2792 15.9565 18.1604Z" fill="#330900"/>
<path d="M17.8518 18.2415C18.5225 18.2709 19.2531 18.4375 19.76 18.9209C19.1736 18.5563 18.5059 18.4111 17.8518 18.2415Z" fill="#774B3F"/>
<path d="M15.5073 19.1321C17.1478 19.2966 19.7179 19.9628 20.7426 21.3816C19.4973 20.1568 17.1537 19.5942 15.5073 19.1321Z" fill="#330900"/>
<path d="M13.9327 7.76252C13.9327 7.76252 11.9853 5.514 12.4314 6.63115C12.8776 7.74729 13.2531 7.73104 13.1492 8.97514C13.0443 10.2192 12.9443 10.3147 13.2786 11.4511C13.612 12.5876 13.3434 13.4366 13.3434 13.4366C13.3434 13.4366 12.7785 14.6035 13.3453 15.1083C13.9121 15.613 14.7779 9.04521 13.9327 7.76252Z" fill="#351E16"/>
<path d="M15.5964 23.0208C15.5964 23.0208 6.84277 9.68204 7.10949 9.17323C7.37621 8.66442 7.69783 8.46333 8.61467 10.0182C9.53151 11.5731 16.4926 22.7263 16.4926 22.7263L15.5964 23.0208Z" fill="#3C291B"/>
<path d="M17.3291 26.7268L6.58299 11.7611C6.58299 11.7611 6.34177 11.2289 6.52121 10.9801C6.70066 10.7313 6.84088 10.3646 7.79694 11.5793C8.75398 12.7949 18.3224 26.1581 18.3224 26.1581L17.3291 26.7268Z" fill="#3C291B"/>
<path d="M7.5815 21.9892C7.65994 19.6787 8.69445 17.4932 10.486 16.113C11.2587 15.5178 11.6323 15.3299 13.16 15.0263C16.1645 14.4291 20.2603 14.422 23.3403 18.9262C26.4213 23.4303 16.944 31.0878 16.944 31.0878C16.944 31.0878 7.20398 33.054 7.5815 21.9892Z" fill="#B08968"/>
<path d="M17.2469 14.8576C17.2469 14.8576 10.225 13.1889 8.07947 19.4308C8.07947 19.4308 9.66113 20.9156 9.93962 22.2764C10.2181 23.6373 10.7074 27.7119 10.7074 27.7119L14.0992 29.3602L17.1331 27.9495C17.1331 27.9495 22.4439 21.7859 17.2469 14.8576Z" fill="#775132"/>
<path d="M10.1995 23.864C10.1995 23.864 12.7705 24.9426 13.5011 24.7659C14.2316 24.5891 16.785 24.8227 16.9135 25.0126C17.0419 25.2026 16.7311 25.5702 15.7015 25.3194C14.6719 25.0685 13.5942 25.1365 12.9608 25.0695C12.3263 25.0025 10.9643 24.6359 10.1995 23.864Z" fill="#B08968"/>
<path d="M19.1805 26.2922C19.1805 26.2922 19.1697 26.3044 19.1501 26.3278C18.9706 26.5268 18.0342 27.4937 16.9654 27.2266C15.7759 26.928 14.8748 26.734 14.1992 26.6304C13.5235 26.5268 11.5075 26.2638 11.4702 25.9744C11.4702 25.9744 12.0331 26.864 13.2225 26.9676C14.4119 27.0712 15.6131 27.9527 16.4025 27.8238C16.4025 27.8238 18.5794 27.8095 19.1805 26.2922Z" fill="#B08968"/>
<path d="M12.2834 22.2349C12.2834 22.2349 13.5974 23.6354 14.8496 23.8161C16.1018 23.9979 19.6064 24.6977 19.4436 23.4008C19.4436 23.4008 15.638 23.7765 14.6113 23.3358C13.5847 22.896 12.5708 22.5588 12.2834 22.2349Z" fill="#B08968"/>
<path d="M10.9812 17.113C10.9812 17.113 12.9218 19.1351 15.2369 18.9797C15.2369 18.9797 12.1451 18.0728 10.9812 17.113Z" fill="#B08968"/>
<path d="M16.1387 18.3188C16.1387 18.3188 19.4687 18.461 20.1944 17.9949C20.1944 17.9949 17.4909 19.6411 15.2375 17.9949L16.1387 18.3188Z" fill="#B08968"/>
<path d="M19.5003 19.92C19.5003 19.92 17.7608 20.5293 16.5586 20.2825C16.5586 20.2825 15.527 20.2561 15.3231 19.9718C15.1191 19.6864 14.2307 20.1312 14.2307 20.1312C14.2307 20.1312 14.8563 19.987 15.1073 20.1089C15.3574 20.2307 16.5968 20.7233 17.2607 20.6197C17.9236 20.5171 19.0002 20.3607 19.5003 19.92Z" fill="#B08968"/>
<path d="M8.94043 17.9175C8.94043 17.9175 9.42091 19.7872 11.7096 20.9775C11.8469 21.0485 11.9783 21.1349 12.0969 21.2364C12.3852 21.4822 13.051 21.9524 13.8345 21.8468C14.8857 21.7046 15.2367 22.0408 15.6995 22.1454C16.1624 22.25 19.6679 22.4176 20.1935 21.9768C20.7191 21.536 20.6563 21.3024 19.8307 21.4842C19.0041 21.666 18.4157 21.925 17.5028 21.7828C16.5889 21.6406 14.9867 21.2253 14.3738 21.3035C13.8257 21.3725 12.999 21.3522 12.4627 20.8424C12.3058 20.6941 12.1224 20.5804 11.9292 20.49C11.3066 20.1985 9.98376 19.447 8.94043 17.9175Z" fill="#B08968"/>
<path d="M10.4782 28.1992C10.4782 28.1992 9.55152 24.5065 8.03849 21.1358L4.88986 18.0758C4.88986 18.0758 4.34173 17.4279 4.42115 17.0125C4.50058 16.5971 5.40075 13.2781 3.2376 12.5266C3.2376 12.5266 1.96089 14.8086 2.05012 17.8168C2.13837 20.825 2.95519 25.3881 2.95519 25.3881L10.4782 28.1992Z" fill="#E5B686"/>
<path d="M27.1613 12.5979C27.1505 12.5562 27.0917 12.5887 27.0907 12.6324C27.0731 13.5576 26.8534 16.6998 25.6453 18.4477C24.2186 20.5134 19.7286 25.6492 19.4197 27.5027L26.6759 24.1289C26.6759 24.1289 27.5722 17.1457 27.5977 15.8092C27.6183 14.754 27.3182 13.1961 27.1613 12.5979Z" fill="#EAB880"/>
<path d="M26.9144 11.2695C26.9144 11.2695 24.7385 13.2967 24.6385 14.299C24.6385 14.299 23.9815 15.0028 23.9482 16.9741C23.9149 18.9444 22.7088 19.2907 22.1077 20.0402C21.5321 20.7592 19.4287 24.1401 18.8276 27.8734C18.8276 27.8734 21.4438 24.3422 22.2116 23.1662C22.9794 21.9911 26.7017 17.3336 27.2017 15.9169C27.7028 14.5001 26.9144 11.2695 26.9144 11.2695Z" fill="#F7E3B9"/>
<path d="M2.0448 13.0366C2.0448 13.0366 2.31152 11.5843 4.01478 9.95932C5.71706 8.33438 14.0333 -0.166115 15.1306 0.0024734C16.2475 0.174108 26.7808 10.3402 26.7808 10.3402C26.7808 10.3402 27.983 10.9973 28.0497 13.0366C28.1163 15.0769 27.2152 24.1349 27.2152 24.1349L25.8463 24.7575C25.8463 24.7575 26.3807 24.1349 26.7141 23.9968C26.7141 23.9968 27.8486 13.9018 27.1152 12.5186C27.0151 12.3297 26.8533 12.1043 26.6474 11.8544C25.3531 10.2823 22.3457 8.10993 22.0574 7.7819C21.724 7.40207 21.4563 7.31473 21.4563 7.31473L17.3673 2.80246C17.3673 2.80246 15.4316 0.624016 13.2283 2.7334C11.0249 4.84278 3.51468 11.9875 3.91476 12.3734C4.31483 12.7593 5.45034 12.8639 5.55036 14.2116C5.65037 15.5603 5.7504 17.6687 6.55153 18.1876C7.35266 18.7066 9.47266 20.5814 9.93941 22.2764C10.4071 23.9704 10.7572 28.2836 10.7572 28.2836C10.7572 28.2836 9.65602 27.4539 9.28831 25.6563C8.92157 23.8587 8.35382 21.1968 6.25049 19.7445C6.25049 19.7445 4.91495 18.604 4.34818 17.3244C3.78042 16.0447 2.0448 13.0366 2.0448 13.0366Z" fill="#F7D9AE"/>
<path d="M4.16988 17.5205C4.16988 17.5205 6.40461 19.8056 4.53956 21.5738C4.31108 21.7901 4.00417 21.8967 3.69627 21.8663C2.74413 21.7728 1.79689 21.4966 1.47526 20.0108C1.02812 17.9491 2.29208 16.0297 4.16988 17.5205Z" fill="#E8BC91"/>
<path d="M1.53027 20.1225C1.53027 20.1225 5.72518 22.6076 4.22293 17.5774C4.22293 17.5774 6.58122 20.2098 4.57202 21.7383C4.53084 21.7698 4.48181 21.7901 4.43082 21.7972C3.99446 21.8642 1.88132 22.0815 1.53027 20.1225Z" fill="#DEA36C"/>
<path d="M5.83398 24.1421C5.83398 24.1421 4.80731 21.4711 6.03401 20.745C7.26071 20.0188 8.7257 20.6932 8.86298 22.2745C9.00026 23.8557 8.88847 24.7505 8.51291 24.9841C8.13735 25.2187 6.64786 25.6462 5.83398 24.1421Z" fill="#E8BC91"/>
<path d="M5.62793 23.4811C5.62793 23.4811 9.71497 26.5715 7.99994 20.7329C7.99994 20.7329 9.49728 21.9283 8.75596 24.5668C8.69811 24.7709 8.55593 24.9395 8.36766 25.0258C7.71852 25.3224 6.17901 25.7479 5.62793 23.4811Z" fill="#DEA36C"/>
<path d="M3.47377 16.4603C4.44188 16.0751 4.84146 14.7242 4.36624 13.443C3.89103 12.1617 2.72099 11.4353 1.75287 11.8205C0.784756 12.2057 0.385177 13.5566 0.86039 14.8378C1.3356 16.119 2.50565 16.8454 3.47377 16.4603Z" fill="#E8BC91"/>
<path d="M3.33362 12.6822C3.31106 12.6355 3.12377 11.8118 3.67485 12.3643C4.1877 12.8792 5.09571 14.5031 4.14749 15.929C3.99746 16.1555 3.78174 16.3251 3.53169 16.4165C2.94825 16.6308 1.90786 16.6562 1.09006 15.3075C1.09006 15.3075 0.817458 14.5255 1.9157 15.534C3.01395 16.5435 4.18476 14.4625 3.33362 12.6822Z" fill="#DEA36C"/>
<path d="M2.86377 24.0477C2.86377 24.0477 4.40033 23.2321 4.97887 25.0358L2.86377 24.0477Z" fill="#DEA36C"/>
<path d="M28.7598 22.1697C28.7598 22.1697 30.7631 20.6656 29.6776 18.9198C28.5921 17.174 26.9408 18.3145 26.5564 19.1788C26.1721 20.043 25.772 22.2387 26.5564 22.6186C27.3409 22.9984 28.7598 22.1697 28.7598 22.1697Z" fill="#E5B783"/>
<path d="M27.6568 18.1368C27.6568 18.1368 28.0853 18.1002 27.7284 18.4201C27.3714 18.74 24.9857 22.323 28.1137 22.4479C28.1137 22.4479 26.1869 23.3335 26.3026 21.2678C26.4183 19.2021 26.7841 18.9127 27.6568 18.1368Z" fill="#D29155"/>
<path d="M27.6763 19.0141C27.6763 19.0141 28.1107 17.8736 27.1752 18.8415C26.2407 19.8093 26.074 21.8628 26.7075 22.2366C27.3419 22.6103 28.7441 22.8175 29.3109 21.746C29.3109 21.746 30.012 20.2247 28.7432 21.5043C27.4763 22.783 26.8752 20.3973 27.6763 19.0141Z" fill="#E0A56E"/>
<path d="M25.5682 13.8185C25.5682 13.8185 25.8231 13.461 26.2056 13.1107C26.8871 12.4871 28.1069 12.0991 28.7668 13.6439C29.1061 14.4391 29.0953 15.4922 28.5344 16.193C27.9598 16.911 27.0704 17.3365 26.4762 17.3447C25.3005 17.3619 24.617 15.7025 25.5682 13.8185Z" fill="#E5B783"/>
<path d="M26.7554 12.6943C26.7554 12.6943 25.7376 18.4842 28.7666 15.8132C28.7666 15.8132 28.0351 17.1264 26.6397 17.3366C25.162 17.559 23.8264 14.6118 26.7554 12.6943Z" fill="#E0A56E"/>
<path d="M22.1939 22.5057C22.1939 22.5057 22.5008 20.5 23.9079 20.37C25.3151 20.24 25.5798 22.0437 25.3151 22.6357C25.0503 23.2278 24.7297 24.3531 23.1549 24.3826C21.581 24.411 22.1939 22.5057 22.1939 22.5057Z" fill="#E5B783"/>
<path d="M23.4923 20.4949C23.4923 20.4949 22.6157 24.4364 23.8679 23.8656C25.1201 23.2949 25.1201 23.2949 25.1201 23.2949C25.1201 23.2949 24.669 25.3697 22.6667 25.1361C20.6634 24.9036 21.589 20.8585 23.4923 20.4949Z" fill="#E0A56E"/>
<path d="M28.153 22.8259L23.4796 46.2312L14.0994 50.0001V29.3602L28.153 22.8259Z" fill="#9A8674"/>
<path d="M0.220215 22.8125L14.2062 29.3468V49.9867L5.36039 47.0486L0.220215 22.8125Z" fill="#C6B198"/>
<path d="M11.14 23.8244C11.14 23.8244 12.1411 23.2191 11.8911 22.7702C11.641 22.3203 11.29 21.6815 10.8399 22.0958C10.3888 22.5112 10.3055 22.8738 10.6399 23.2363C10.9733 23.5999 11.14 23.8244 11.14 23.8244Z" fill="#CDB887"/>
<path d="M11.6529 16.6307C11.6529 16.6307 11.5695 17.0979 11.9529 16.9588C12.3363 16.8206 12.1579 16.6307 12.1579 16.6307C12.1579 16.6307 12.809 16.4885 12.9129 16.2631C13.0169 16.0376 13.009 15.5633 12.6129 15.8396C12.2167 16.1158 12.3501 15.8487 12.3962 15.8091C12.4422 15.7705 12.4589 15.3338 12.0333 15.5674C11.6078 15.801 11.5293 15.8873 11.646 16.1676C11.7617 16.4489 11.6529 16.6307 11.6529 16.6307Z" fill="#D0B889"/>
<path d="M14.6515 23.2646C14.6515 23.2646 15.6575 22.5994 15.5154 22.3099C15.3732 22.0205 15.0525 21.2212 14.5093 21.4284C13.967 21.6356 13.7582 22.1028 14.0582 22.5567C14.3593 23.0097 14.6515 23.2646 14.6515 23.2646Z" fill="#DED4CD"/>
<path d="M17.4097 22.5769C17.4097 22.5769 16.888 22.8064 16.9135 22.9963C16.939 23.1863 16.8959 23.9043 17.1616 23.8911C17.4273 23.8779 17.8735 23.7398 17.7274 23.234C17.5803 22.7282 17.4097 22.5769 17.4097 22.5769Z" fill="#CDB887"/>
<path d="M19.2865 21.8752C19.3375 21.8336 20.217 21.0628 20.4837 21.4954C20.4837 21.4954 20.7671 21.7077 20.5838 21.798C20.4004 21.8884 19.6659 22.511 19.5493 22.4805C19.4326 22.4501 19.0462 22.0682 19.2865 21.8752Z" fill="#DED4CD"/>
<path d="M20.571 20.1305C20.571 20.1305 20.0621 20.0229 19.8993 19.9101C19.7365 19.7974 19.5571 19.9924 19.816 20.2168C20.0748 20.4413 20.5837 20.7267 20.9093 20.5022C21.2348 20.2778 20.871 20.0787 20.571 20.1305Z" fill="#ECE4D0"/>
<path d="M17.4931 20.7703C17.4931 20.7703 17.3676 21.5695 17.6726 21.6305C17.9775 21.6914 18.1776 21.3451 18.0815 21.0688C17.9854 20.7926 17.4931 20.7703 17.4931 20.7703Z" fill="#DED4CD"/>
<path d="M19.6798 18.4914C19.6798 18.4914 18.9493 17.5104 19.5759 17.5581C20.2025 17.6058 20.4859 17.7348 20.531 17.9511C20.5761 18.1674 20.0632 18.7209 19.6798 18.4914Z" fill="#CDB887"/>
<path d="M13.5955 18.4975C13.5955 18.4975 14.4299 17.1021 14.5927 17.0889C14.7555 17.0757 15.1144 17.1102 14.5927 17.7673C14.071 18.4244 14.8761 18.2771 14.476 18.8215C14.0759 19.3659 14.0671 19.0246 13.5955 18.4975Z" fill="#DED4CD"/>
<path d="M11.8558 19.98C11.8558 19.98 11.5763 20.5589 11.8979 20.6503C12.2196 20.7407 12.5735 20.9144 12.703 20.4299C12.8324 19.9455 11.8558 19.98 11.8558 19.98Z" fill="#DED4CD"/>
<path d="M9.71914 20.0331C9.71914 20.0331 9.75641 19.8087 9.58579 19.4258C9.41517 19.0429 10.1202 18.4772 10.2575 18.4559C10.3948 18.4346 10.2575 18.8236 10.3908 18.9404C10.5242 19.0572 10.7291 19.6106 10.5575 19.697C10.3869 19.7823 9.71914 20.0331 9.71914 20.0331Z" fill="#C6B589"/>
<path d="M12.1832 26.4677C12.1832 26.4677 12.242 26.0097 12.1577 25.8106C12.0743 25.6115 12.0076 25.2744 12.3538 25.2317C12.6999 25.188 13.0755 25.0936 13.0922 25.2317C13.1088 25.3698 13.2883 26.0879 12.9921 26.2382C12.697 26.3905 12.1832 26.4677 12.1832 26.4677Z" fill="#DED4CD"/>
<path d="M13.4158 14.8129C13.4158 14.8129 13.9463 14.1842 13.2785 13.3514C12.6108 12.5187 12.5853 12.995 12.7647 13.4916C12.9442 13.9882 11.743 14.1253 11.6763 12.5786C11.6714 12.4638 11.6743 12.3531 11.6832 12.2455C11.7989 10.8937 12.9275 10.0487 12.6314 9.69837C12.3107 9.32057 11.4233 11.1943 11.4429 11.3771C11.4615 11.5599 11.0762 12.1439 11.3429 13.3514C11.6096 14.559 11.9107 15.3532 11.9107 15.3532" fill="#351E16"/>
<path d="M8.07952 19.4307C8.07952 19.4307 8.51686 18.0962 8.91889 17.6839C9.32191 17.2715 9.6553 16.4631 9.2719 16.0467C8.88849 15.6293 9.18365 15.932 8.76004 16.9912C8.33643 18.0505 7.40292 19.9689 7.56962 17.1862C7.73632 14.4035 7.41469 18.2597 7.17444 18.2414C6.9342 18.2231 6.65082 16.1402 6.3841 16.7069C6.11738 17.2725 5.70359 15.3186 6.26055 14.8951C6.81752 14.4716 8.15306 13.3087 7.52746 13.0782C6.90185 12.8466 5.733 14.307 5.733 14.8128C5.733 15.3186 5.66828 16.7109 6.05953 17.5102C6.45176 18.3095 8.07952 19.4307 8.07952 19.4307Z" fill="#351E16"/>
<path opacity="0.73" d="M13.2107 7.26074C13.2107 7.26074 13.9275 8.00619 13.9363 8.31696C13.9451 8.62773 13.9991 9.38231 13.9363 9.88401C13.8736 10.3847 13.8765 9.29395 13.6147 8.72319C13.3529 8.15345 13.2107 7.26074 13.2107 7.26074Z" fill="white"/>
<path opacity="0.8" d="M12.9942 13.9007C12.9942 13.9007 12.8942 13.3888 12.8187 13.2121C12.7432 13.0364 13.0442 13.1603 13.1109 13.4355C13.1776 13.7108 13.1864 14.2632 13.0942 14.3679C13.003 14.4714 13.1109 14.1261 12.9942 13.9007Z" fill="white"/>
<path d="M9.12191 17.039C9.12191 17.039 9.38863 16.7079 9.16408 16.2428C8.93854 15.7766 9.28861 16.6846 9.12191 17.039Z" fill="white"/>
<path opacity="0.55" d="M6.16821 14.5925C6.16821 14.5925 7.56161 13.7282 7.46159 13.4174C7.36157 13.1057 6.37609 14.5844 6.16821 14.5925Z" fill="white"/>
<path d="M10.9221 22.0071C11.1663 21.8589 11.3928 21.9411 11.5467 22.1778C11.6958 22.3697 11.8243 22.5749 11.9478 22.7831C12.0223 22.9527 11.9223 23.1202 11.8105 23.2401L11.7085 23.364L11.7978 23.2299C12.0527 22.911 11.9017 22.7892 11.7164 22.5017C11.6497 22.4012 11.584 22.3007 11.5124 22.2052C11.4389 22.1118 11.3722 22.0061 11.2604 21.9736C11.1526 21.9391 11.03 21.9584 10.9221 22.0071Z" fill="#593D28"/>
<path d="M14.1573 21.6365C14.0514 21.7573 13.9651 21.9015 13.9465 22.0559C13.9269 22.2103 14.0024 22.3565 14.0759 22.4977C14.1906 22.7089 14.3269 22.911 14.4809 23.0938C14.5319 23.1558 14.5868 23.2137 14.6505 23.2645C14.5074 23.1883 14.3946 23.0644 14.2887 22.9415C13.9671 22.5414 13.6445 22.0346 14.1573 21.6365Z" fill="#4F3624"/>
<path d="M13.5955 18.4975C13.7906 18.1349 13.9985 17.7804 14.2289 17.4412C14.3123 17.3244 14.3789 17.2117 14.4878 17.1112C14.5574 17.0705 14.6241 17.0584 14.7025 17.0573C14.779 17.0533 14.8614 17.1081 14.8918 17.1843C14.9222 17.2716 14.8879 17.3458 14.8614 17.4108C14.7427 17.7124 14.326 17.9419 14.4652 18.3045C14.2858 17.9541 14.6947 17.6819 14.8035 17.3844C14.8457 17.2919 14.8584 17.2066 14.7771 17.1498C14.7074 17.1112 14.5976 17.1386 14.5309 17.1741C14.4878 17.2107 14.4437 17.2676 14.4035 17.3194C14.3181 17.426 14.1348 17.7043 14.0534 17.8201C14.0534 17.818 13.5955 18.4975 13.5955 18.4975Z" fill="#4F3624"/>
<path d="M13.1275 25.4358C13.1716 25.6765 13.2579 26.1254 13.002 26.2645C12.8774 26.298 12.7196 26.3458 12.5989 26.3904C12.4577 26.4392 12.3107 26.4717 12.1636 26.49C12.1744 26.3397 12.1832 26.1894 12.1881 26.0391C12.1881 25.9913 12.191 25.9436 12.1842 25.8969C12.2185 26.0848 12.2038 26.2787 12.2028 26.4697L12.1812 26.4494C12.4568 26.4097 12.7166 26.2818 12.9853 26.2229C13.2098 26.0939 13.1442 25.6643 13.1275 25.4358Z" fill="#4F3624"/>
<path d="M17.7265 23.234C17.6373 23.0126 17.5569 22.7658 17.3902 22.5932L17.4117 22.5962C17.2607 22.6734 17.097 22.7475 16.9783 22.8735C16.9215 22.9791 16.9371 23.1152 16.9342 23.237C16.9509 23.4848 16.9048 23.9683 17.2754 23.8911C17.0479 23.9652 16.9205 23.7499 16.9205 23.5488C16.9018 23.3264 16.843 23.0512 16.9401 22.843C17.0676 22.7039 17.2441 22.6328 17.4068 22.5515C17.5853 22.7333 17.652 22.9953 17.7265 23.234Z" fill="#4F3624"/>
<path d="M35.64 19.1681V18.8277L37.1198 18.5846V6.78558L35.64 6.55868V6.20211H48.1053V6.55868L46.6095 6.78558V18.5846L48.1053 18.8277V19.1681H43.3444V18.8277L44.8402 18.5846V6.6073H38.889V18.5846L40.3688 18.8277V19.1681H35.64ZM53.0501 19.3302C52.2565 19.3302 51.5382 19.1519 50.8948 18.7953C50.2514 18.4279 49.7421 17.9147 49.3668 17.2556C48.9914 16.5965 48.8038 15.8347 48.8038 14.9703C48.8038 14.106 48.9861 13.3496 49.3507 12.7013C49.726 12.0422 50.2246 11.5344 50.8465 11.1778C51.4792 10.8104 52.1815 10.6267 52.9536 10.6267C53.6291 10.6267 54.2349 10.778 54.7711 11.0806C55.3072 11.3831 55.7254 11.8045 56.0257 12.3447C56.3258 12.8742 56.4813 13.4846 56.4921 14.1762H50.5731V15.7807C50.5731 16.7316 50.7822 17.5041 51.2004 18.0984C51.6292 18.6819 52.2459 18.9736 53.0501 18.9736C53.79 18.9736 54.444 18.7629 55.0124 18.3415C55.5806 17.9201 55.9292 17.3744 56.0578 16.7045H56.4278C56.2776 17.5041 55.897 18.1416 55.2858 18.617C54.6746 19.0924 53.9293 19.3302 53.0501 19.3302ZM54.7228 13.771C54.7228 12.831 54.5781 12.134 54.2886 11.6802C53.999 11.2156 53.5487 10.9833 52.9375 10.9833C52.219 10.9833 51.6614 11.2373 51.2647 11.7451C50.868 12.2529 50.6428 12.9282 50.5892 13.771H54.7228ZM57.4659 23.4306L58.5918 23.2686V11.275L57.4659 11.113V10.7888H60.2002V12.4906C60.4683 11.9071 60.8275 11.4533 61.2779 11.1292C61.739 10.7942 62.2858 10.6267 62.9185 10.6267C63.6798 10.6267 64.3499 10.8104 64.929 11.1778C65.508 11.5344 65.9584 12.0422 66.2801 12.7013C66.6017 13.3496 66.7626 14.1114 66.7626 14.9866C66.7626 15.8618 66.6017 16.6289 66.2801 17.288C65.9584 17.9363 65.508 18.4387 64.929 18.7953C64.3499 19.1519 63.6798 19.3302 62.9185 19.3302C62.2858 19.3302 61.739 19.1681 61.2779 18.8439C60.8275 18.5089 60.4683 18.0551 60.2002 17.4825V23.2686L61.7121 23.4306V23.7548H57.4659V23.4306ZM62.7576 18.925C64.2481 18.925 64.9933 17.8823 64.9933 15.7969V14.1762C64.9933 12.0801 64.2481 11.0319 62.7576 11.0319C62.2858 11.0319 61.8569 11.1724 61.4709 11.4533C61.0849 11.7235 60.7793 12.0908 60.5541 12.5554C60.3289 13.0201 60.211 13.5225 60.2002 14.0627V15.7969C60.2002 16.348 60.3075 16.8666 60.5219 17.3528C60.7471 17.8282 61.0527 18.2118 61.4387 18.5036C61.8355 18.7845 62.2751 18.925 62.7576 18.925ZM67.8821 19.1681V18.8439L69.008 18.6819V11.2588L67.8821 11.0968V10.7726H71.7424V11.0968L70.6165 11.2588V18.7629H73.7529V11.2588L72.627 11.0968V10.7726H76.4872V11.0968L75.3613 11.2588V18.7629H78.4977V11.2588L77.3718 11.0968V10.7726H81.2321V11.0968L80.1062 11.2588V18.6819L81.2321 18.8439V19.1681H67.8821ZM84.7511 19.3302C84.0648 19.3302 83.5018 19.1519 83.0622 18.7953C82.6225 18.4279 82.4028 17.8877 82.4028 17.1746C82.4028 16.1589 82.8263 15.4404 83.6734 15.019C84.5205 14.5867 85.5016 14.3707 86.6168 14.3707H87.6945V13.1227C87.6945 12.5608 87.6301 12.1287 87.5015 11.8261C87.3835 11.5128 87.1959 11.2966 86.9385 11.1778C86.6812 11.0481 86.3327 10.9833 85.8931 10.9833C85.389 10.9833 85.0138 11.0859 84.7672 11.2913C84.5205 11.4857 84.3972 11.7504 84.3972 12.0854C84.3972 12.3987 84.5473 12.6041 84.8476 12.7013C84.8476 12.9715 84.7456 13.2091 84.542 13.4144C84.3382 13.6198 84.097 13.7224 83.8182 13.7224C83.5179 13.7224 83.2767 13.6413 83.0944 13.4793C82.912 13.3063 82.821 13.047 82.821 12.7013C82.821 12.0746 83.1319 11.5722 83.7539 11.194C84.3757 10.8159 85.1532 10.6267 86.0861 10.6267C88.2306 10.6267 89.3029 11.5668 89.3029 13.4468V18.0822C89.3029 18.3199 89.3512 18.5036 89.4477 18.6332C89.5548 18.7521 89.705 18.8115 89.898 18.8115C90.0803 18.8115 90.225 18.7521 90.3323 18.6332C90.4395 18.5036 90.4931 18.3307 90.4931 18.1146H90.8309C90.8309 18.4927 90.7076 18.7899 90.461 19.006C90.225 19.2221 89.8926 19.3302 89.4638 19.3302C88.9705 19.3302 88.5523 19.1897 88.2092 18.9088C87.8767 18.617 87.7051 18.1686 87.6945 17.5635C87.4371 18.1146 87.0404 18.5468 86.5043 18.8601C85.9788 19.1734 85.3944 19.3302 84.7511 19.3302ZM85.6357 18.617C85.9252 18.617 86.2201 18.5306 86.5203 18.3577C86.8313 18.1848 87.0939 17.9363 87.3085 17.6122C87.5229 17.2772 87.6516 16.8775 87.6945 16.4128V14.7272H86.6168C85.7375 14.7272 85.0781 14.9271 84.6385 15.3269C84.2095 15.7159 83.9951 16.2669 83.9951 16.9801C83.9951 17.5744 84.1344 17.9958 84.4133 18.2443C84.6921 18.4927 85.0995 18.617 85.6357 18.617ZM104.625 19.3302C104.025 19.3302 103.575 19.1843 103.274 18.8926C102.974 18.6008 102.771 18.1038 102.663 17.4015L102.277 14.6624C102.169 13.8953 101.939 13.3388 101.585 12.993C101.231 12.6473 100.663 12.4744 99.8805 12.4744H98.5294V18.5846L100.009 18.8277V19.1681H95.2804V18.8277L96.7602 18.5846V6.78558L95.2804 6.55868V6.20211H100.009V6.55868L98.5294 6.78558V12.0854H100.218C100.733 12.0746 101.172 11.8747 101.537 11.4857C101.902 11.0859 102.164 10.5566 102.325 9.89741L102.824 7.85527C102.974 7.2502 103.199 6.79639 103.499 6.49385C103.81 6.19131 104.18 6.04004 104.609 6.04004C104.963 6.04004 105.269 6.14268 105.526 6.34798C105.794 6.55328 105.928 6.8234 105.928 7.15835C105.928 7.47169 105.837 7.72561 105.655 7.9201C105.483 8.11459 105.253 8.21184 104.963 8.21184H104.641C104.469 7.74722 104.202 7.51492 103.837 7.51492C103.483 7.51492 103.263 7.6986 103.178 8.06597L102.679 10.1081C102.55 10.6159 102.362 11.0481 102.116 11.4047C101.87 11.7504 101.585 11.999 101.264 12.1502C102.153 12.2583 102.835 12.5177 103.306 12.9282C103.778 13.3388 104.067 13.8953 104.175 14.5976L104.545 17.0449C104.63 17.596 104.722 17.9796 104.818 18.1956C104.915 18.4117 105.054 18.5414 105.236 18.5846C105.269 18.5954 105.317 18.6008 105.381 18.6008C105.703 18.6008 106.041 18.4172 106.395 18.0498L106.668 18.3415C106.089 19.0006 105.408 19.3302 104.625 19.3302ZM111.055 19.3302C110.283 19.3302 109.58 19.1519 108.948 18.7953C108.316 18.4279 107.811 17.9147 107.436 17.2556C107.071 16.5857 106.889 15.824 106.889 14.9703C106.889 14.1167 107.071 13.3604 107.436 12.7013C107.811 12.0422 108.316 11.5344 108.948 11.1778C109.58 10.8104 110.283 10.6267 111.055 10.6267C111.827 10.6267 112.53 10.8104 113.162 11.1778C113.794 11.5344 114.293 12.0422 114.658 12.7013C115.033 13.3604 115.221 14.1167 115.221 14.9703C115.221 15.824 115.033 16.5857 114.658 17.2556C114.293 17.9147 113.794 18.4279 113.162 18.7953C112.53 19.1519 111.827 19.3302 111.055 19.3302ZM111.055 18.9736C111.848 18.9736 112.443 18.6819 112.84 18.0984C113.247 17.5149 113.451 16.7423 113.451 15.7807V14.16C113.451 13.1984 113.247 12.4311 112.84 11.8585C112.443 11.275 111.848 10.9833 111.055 10.9833C110.262 10.9833 109.661 11.275 109.253 11.8585C108.856 12.4311 108.658 13.1984 108.658 14.16V15.7807C108.658 16.7423 108.856 17.5149 109.253 18.0984C109.661 18.6819 110.262 18.9736 111.055 18.9736ZM116.339 19.1681V18.8439L117.464 18.6819V11.2588L116.339 11.0968V10.7726H120.038V11.0968L119.073 11.2588V14.711H123.046V11.2588L122.081 11.0968V10.7726H125.78V11.0968L124.654 11.2588V18.6819L125.78 18.8439V19.1681H122.081V18.8439L123.046 18.6819V15.1162H119.073V18.6819L120.038 18.8439V19.1681H116.339ZM131.066 19.3302C130.294 19.3302 129.592 19.1519 128.959 18.7953C128.326 18.4279 127.823 17.9147 127.447 17.2556C127.083 16.5857 126.9 15.824 126.9 14.9703C126.9 14.1167 127.083 13.3604 127.447 12.7013C127.823 12.0422 128.326 11.5344 128.959 11.1778C129.592 10.8104 130.294 10.6267 131.066 10.6267C131.838 10.6267 132.54 10.8104 133.173 11.1778C133.806 11.5344 134.305 12.0422 134.669 12.7013C135.045 13.3604 135.232 14.1167 135.232 14.9703C135.232 15.824 135.045 16.5857 134.669 17.2556C134.305 17.9147 133.806 18.4279 133.173 18.7953C132.54 19.1519 131.838 19.3302 131.066 19.3302ZM131.066 18.9736C131.86 18.9736 132.455 18.6819 132.851 18.0984C133.259 17.5149 133.462 16.7423 133.462 15.7807V14.16C133.462 13.1984 133.259 12.4311 132.851 11.8585C132.455 11.275 131.86 10.9833 131.066 10.9833C130.273 10.9833 129.672 11.275 129.264 11.8585C128.868 12.4311 128.669 13.1984 128.669 14.16V15.7807C128.669 16.7423 128.868 17.5149 129.264 18.0984C129.672 18.6819 130.273 18.9736 131.066 18.9736ZM138.2 19.1681V18.8439L139.487 18.6819V11.1778H138.104L136.704 13.852H136.254L136.495 10.7726H144.087L144.328 13.852H143.878L142.462 11.1778H141.095V18.6819L142.382 18.8439V19.1681H138.2ZM149.522 19.3302C148.75 19.3302 148.048 19.1519 147.415 18.7953C146.782 18.4279 146.278 17.9147 145.903 17.2556C145.538 16.5857 145.357 15.824 145.357 14.9703C145.357 14.1167 145.538 13.3604 145.903 12.7013C146.278 12.0422 146.782 11.5344 147.415 11.1778C148.048 10.8104 148.75 10.6267 149.522 10.6267C150.294 10.6267 150.996 10.8104 151.629 11.1778C152.262 11.5344 152.76 12.0422 153.125 12.7013C153.5 13.3604 153.688 14.1167 153.688 14.9703C153.688 15.824 153.5 16.5857 153.125 17.2556C152.76 17.9147 152.262 18.4279 151.629 18.7953C150.996 19.1519 150.294 19.3302 149.522 19.3302ZM149.522 18.9736C150.315 18.9736 150.911 18.6819 151.308 18.0984C151.715 17.5149 151.919 16.7423 151.919 15.7807V14.16C151.919 13.1984 151.715 12.4311 151.308 11.8585C150.911 11.275 150.315 10.9833 149.522 10.9833C148.728 10.9833 148.128 11.275 147.721 11.8585C147.324 12.4311 147.126 13.1984 147.126 14.16V15.7807C147.126 16.7423 147.324 17.5149 147.721 18.0984C148.128 18.6819 148.728 18.9736 149.522 18.9736ZM154.806 19.1681V18.8439L155.932 18.6819V11.2588L154.806 11.0968V10.7726H164.135V11.0968L163.009 11.2588V18.6819L164.135 18.8439V19.1681H160.435V18.8439L161.401 18.6819V11.1778H157.54V18.6819L158.505 18.8439V19.1681H154.806ZM169.424 19.3302C168.652 19.3302 167.949 19.1519 167.317 18.7953C166.683 18.4279 166.18 17.9147 165.805 17.2556C165.44 16.5857 165.258 15.824 165.258 14.9703C165.258 14.0736 165.451 13.2956 165.837 12.6365C166.233 11.9773 166.748 11.4804 167.381 11.1454C168.013 10.7997 168.694 10.6267 169.424 10.6267C170.035 10.6267 170.592 10.7348 171.096 10.9509C171.6 11.1562 171.997 11.448 172.287 11.8261C172.586 12.2042 172.737 12.6311 172.737 13.1065C172.737 13.4631 172.645 13.7386 172.463 13.9331C172.281 14.1167 172.039 14.2086 171.74 14.2086C171.45 14.2086 171.209 14.1114 171.016 13.9169C170.823 13.7224 170.726 13.4793 170.726 13.1875C170.887 13.0794 171 12.9606 171.064 12.831C171.128 12.7013 171.161 12.5392 171.161 12.3447C171.161 11.9449 171 11.6208 170.678 11.3723C170.366 11.113 169.948 10.9833 169.424 10.9833C168.652 10.9833 168.056 11.2642 167.638 11.8261C167.23 12.3772 167.027 13.1551 167.027 14.16V15.7807C167.027 16.7423 167.225 17.5149 167.622 18.0984C168.029 18.6819 168.629 18.9736 169.424 18.9736C170.152 18.9736 170.785 18.7683 171.321 18.3577C171.868 17.9363 172.206 17.3853 172.335 16.7045H172.705C172.554 17.5041 172.179 18.1416 171.579 18.617C170.989 19.0924 170.27 19.3302 169.424 19.3302ZM173.796 18.8439L174.922 18.6819V11.2588L173.796 11.0968V10.7726H177.657V11.0968L176.531 11.2588V14.3058H178.718C179.683 14.3058 180.439 14.5112 180.986 14.9217C181.543 15.3323 181.822 15.9374 181.822 16.737C181.822 17.5365 181.549 18.1416 181.002 18.5522C180.455 18.9628 179.693 19.1681 178.718 19.1681H173.796V18.8439ZM178.236 18.7629C178.825 18.7629 179.281 18.59 179.603 18.2443C179.925 17.8985 180.085 17.4015 180.085 16.7532V16.7208C180.085 16.0725 179.925 15.5754 179.603 15.2297C179.281 14.8839 178.825 14.711 178.236 14.711H176.531V18.7629H178.236ZM190.009 19.3302C189.537 19.3302 189.189 19.2329 188.964 19.0384C188.739 18.8331 188.583 18.4927 188.497 18.0174L188.176 16.2994C188.079 15.7916 187.918 15.435 187.693 15.2297C187.468 15.0243 187.162 14.9164 186.776 14.9055H185.281V18.6656L186.439 18.8439V19.1681H182.514V18.8439L183.672 18.6656V11.275L182.514 11.113V10.7726H186.439V11.113L185.281 11.275V14.5327H186.793C187.06 14.5112 187.275 14.4193 187.436 14.2572C187.597 14.0843 187.73 13.7926 187.838 13.382L188.127 12.2151C188.256 11.6856 188.427 11.2913 188.642 11.0319C188.867 10.7618 189.21 10.6267 189.672 10.6267C190.058 10.6267 190.357 10.7348 190.571 10.9509C190.786 11.1562 190.894 11.4101 190.894 11.7126C190.894 11.9935 190.803 12.2367 190.621 12.442C190.449 12.6365 190.212 12.7337 189.913 12.7337C189.752 12.7337 189.596 12.7067 189.446 12.6527C189.479 12.5554 189.495 12.4636 189.495 12.3772C189.495 12.2367 189.451 12.1178 189.366 12.0206C189.28 11.9233 189.173 11.8747 189.044 11.8747C188.787 11.8747 188.615 12.026 188.53 12.3285L188.224 13.4955C188.084 14.0033 187.902 14.3598 187.677 14.5652C188.385 14.63 188.9 14.8029 189.221 15.0838C189.553 15.3647 189.773 15.7916 189.881 16.3642L190.154 17.758C190.229 18.1146 190.304 18.3523 190.379 18.4712C190.465 18.59 190.588 18.6494 190.749 18.6494C190.931 18.6494 191.119 18.5522 191.312 18.3577L191.553 18.6008C191.349 18.8386 191.108 19.0222 190.83 19.1519C190.55 19.2707 190.277 19.3302 190.009 19.3302ZM194.56 19.3302C193.875 19.3302 193.312 19.1519 192.871 18.7953C192.432 18.4279 192.212 17.8877 192.212 17.1746C192.212 16.1589 192.636 15.4404 193.483 15.019C194.33 14.5867 195.311 14.3707 196.426 14.3707H197.504V13.1227C197.504 12.5608 197.439 12.1287 197.311 11.8261C197.193 11.5128 197.005 11.2966 196.748 11.1778C196.49 11.0481 196.142 10.9833 195.702 10.9833C195.199 10.9833 194.824 11.0859 194.576 11.2913C194.33 11.4857 194.206 11.7504 194.206 12.0854C194.206 12.3987 194.357 12.6041 194.657 12.7013C194.657 12.9715 194.555 13.2091 194.351 13.4144C194.148 13.6198 193.907 13.7224 193.627 13.7224C193.328 13.7224 193.086 13.6413 192.904 13.4793C192.722 13.3063 192.63 13.047 192.63 12.7013C192.63 12.0746 192.942 11.5722 193.563 11.194C194.185 10.8159 194.962 10.6267 195.895 10.6267C198.04 10.6267 199.112 11.5668 199.112 13.4468V18.0822C199.112 18.3199 199.16 18.5036 199.257 18.6332C199.364 18.7521 199.514 18.8115 199.707 18.8115C199.89 18.8115 200.035 18.7521 200.141 18.6332C200.249 18.5036 200.302 18.3307 200.302 18.1146H200.64C200.64 18.4927 200.517 18.7899 200.27 19.006C200.035 19.2221 199.702 19.3302 199.273 19.3302C198.78 19.3302 198.362 19.1897 198.018 18.9088C197.687 18.617 197.515 18.1686 197.504 17.5635C197.246 18.1146 196.85 18.5468 196.313 18.8601C195.789 19.1734 195.204 19.3302 194.56 19.3302ZM195.445 18.617C195.734 18.617 196.03 18.5306 196.329 18.3577C196.641 18.1848 196.903 17.9363 197.118 17.6122C197.333 17.2772 197.461 16.8775 197.504 16.4128V14.7272H196.426C195.547 14.7272 194.888 14.9271 194.448 15.3269C194.019 15.7159 193.804 16.2669 193.804 16.9801C193.804 17.5744 193.944 17.9958 194.222 18.2443C194.502 18.4927 194.909 18.617 195.445 18.617ZM35.64 41.113L37.1198 40.8699V29.0708L35.64 28.8439V28.4874H40.5457C41.7038 28.4874 42.6259 28.5954 43.3122 28.8115C43.9985 29.0276 44.4971 29.3572 44.808 29.8002C45.1189 30.2324 45.2745 30.805 45.2745 31.5182C45.2745 33.0741 44.2987 34.0681 42.3471 34.5003V34.5814C43.5374 34.7434 44.4595 35.1 45.1136 35.6511C45.7784 36.2021 46.1108 36.9692 46.1108 37.9525C46.1108 39.141 45.6766 40.0217 44.808 40.5943C43.9502 41.167 42.7867 41.4533 41.3177 41.4533H35.64V41.113ZM40.6744 34.4517C41.5322 34.4517 42.1916 34.2086 42.6527 33.7224C43.1139 33.2362 43.3444 32.5446 43.3444 31.6478V31.5506C43.3444 29.7786 42.4115 28.8926 40.5457 28.8926H38.889V34.4517H40.6744ZM41.3177 41.0644C42.2292 41.0644 42.9369 40.7997 43.4409 40.2702C43.9448 39.73 44.1968 38.9628 44.1968 37.9687V37.7904C44.1968 36.8072 43.9448 36.0725 43.4409 35.5862C42.9476 35.1 42.2399 34.8569 41.3177 34.8569H38.889V41.0644H41.3177ZM50.0695 41.6154C49.3832 41.6154 48.8202 41.4371 48.3806 41.0806C47.9409 40.7132 47.7212 40.1729 47.7212 39.4598C47.7212 38.4441 48.1447 37.7256 48.9918 37.3042C49.8389 36.872 50.82 36.6559 51.9352 36.6559H53.0129V35.408C53.0129 34.8461 52.9485 34.4139 52.8199 34.1114C52.7019 33.798 52.5143 33.5819 52.2569 33.4631C51.9996 33.3334 51.6511 33.2686 51.2115 33.2686C50.7074 33.2686 50.3321 33.3712 50.0856 33.5765C49.8389 33.771 49.7156 34.0357 49.7156 34.3707C49.7156 34.684 49.8657 34.8893 50.166 34.9866C50.166 35.2567 50.064 35.4944 49.8604 35.6997C49.6566 35.905 49.4153 36.0076 49.1366 36.0076C48.8363 36.0076 48.5951 35.9266 48.4128 35.7645C48.2304 35.5916 48.1394 35.3323 48.1394 34.9866C48.1394 34.3598 48.4503 33.8574 49.0723 33.4793C49.6941 33.1011 50.4716 32.912 51.4045 32.912C53.549 32.912 54.6213 33.852 54.6213 35.7321V40.3674C54.6213 40.6052 54.6696 40.7888 54.7661 40.9185C54.8732 41.0373 55.0234 41.0968 55.2164 41.0968C55.3987 41.0968 55.5434 41.0373 55.6507 40.9185C55.7579 40.7888 55.8115 40.6159 55.8115 40.3998H56.1493C56.1493 40.778 56.026 41.0752 55.7794 41.2913C55.5434 41.5073 55.211 41.6154 54.7822 41.6154C54.2889 41.6154 53.8707 41.4749 53.5276 41.194C53.1951 40.9023 53.0235 40.4538 53.0129 39.8488C52.7555 40.3998 52.3588 40.8321 51.8227 41.1454C51.2972 41.4587 50.7128 41.6154 50.0695 41.6154ZM50.9541 40.9023C51.2436 40.9023 51.5385 40.8159 51.8387 40.643C52.1497 40.47 52.4123 40.2216 52.6269 39.8974C52.8413 39.5624 52.97 39.1627 53.0129 38.6981V37.0125H51.9352C51.0559 37.0125 50.3965 37.2123 49.9569 37.6122C49.5279 38.0011 49.3135 38.5522 49.3135 39.2653C49.3135 39.8596 49.4528 40.281 49.7317 40.5295C50.0105 40.778 50.4179 40.9023 50.9541 40.9023ZM60.1765 45.7159L61.3024 45.5538V41.6154C60.466 41.6154 59.7047 41.4318 59.0184 41.0644C58.3321 40.6862 57.7907 40.1676 57.3939 39.5084C56.9971 38.8386 56.7988 38.0875 56.7988 37.2556C56.7988 36.4236 56.9971 35.6781 57.3939 35.019C57.7907 34.3491 58.3321 33.8305 59.0184 33.4631C59.7047 33.0957 60.466 32.912 61.3024 32.912V28.9736L60.1765 28.8115V28.4874H62.9108V32.912C63.7472 32.912 64.5085 33.0957 65.1948 33.4631C65.8811 33.8305 66.4225 34.3491 66.8193 35.019C67.2161 35.6781 67.4144 36.4236 67.4144 37.2556C67.4144 38.0875 67.2161 38.8386 66.8193 39.5084C66.4225 40.1676 65.8811 40.6862 65.1948 41.0644C64.5085 41.4318 63.7472 41.6154 62.9108 41.6154V45.5538L64.0367 45.7159V46.04H60.1765V45.7159ZM61.3024 33.2686C60.4338 33.2686 59.7583 33.5549 59.2758 34.1276C58.804 34.6895 58.5681 35.4619 58.5681 36.4452V38.066C58.5681 39.0493 58.804 39.8272 59.2758 40.3998C59.7583 40.9725 60.4338 41.2588 61.3024 41.2588V33.2686ZM62.9108 41.2588C63.7794 41.2588 64.4496 40.9725 64.9213 40.3998C65.4039 39.8272 65.6451 39.0493 65.6451 38.066V36.4452C65.6451 35.4619 65.4039 34.6895 64.9213 34.1276C64.4496 33.5549 63.7794 33.2686 62.9108 33.2686V41.2588ZM68.9896 41.6154C68.6144 41.6154 68.3194 41.5235 68.105 41.3399C67.8906 41.1562 67.7833 40.8861 67.7833 40.5295C67.7833 40.2269 67.8745 39.9893 68.0568 39.8164C68.239 39.6435 68.4589 39.5571 68.7162 39.5571C68.8878 39.5571 69.0326 39.5948 69.1505 39.6705C69.2684 39.7353 69.3543 39.8055 69.4078 39.8812C69.4722 39.9569 69.5097 40.0055 69.5204 40.0271C69.381 40.1567 69.3113 40.2972 69.3113 40.4485C69.3113 40.6214 69.4186 40.7078 69.633 40.7078C70.3621 40.7078 70.8072 39.141 70.968 36.0076L71.0645 34.0789L69.6008 33.382V33.0579H76.8227V33.382L75.6968 33.5441V40.9509L76.8548 41.113V41.4533H73.0911V41.113L74.0883 40.9509V33.4631H71.4827L71.354 36.0238C71.2897 37.3313 71.1663 38.3901 70.9841 39.2005C70.8125 40.0109 70.5659 40.6159 70.2442 41.0157C69.9225 41.4155 69.5043 41.6154 68.9896 41.6154ZM78.6795 41.6154C78.4115 41.6154 78.1381 41.5559 77.8592 41.4371C77.5804 41.3075 77.3392 41.1238 77.1354 40.8861L77.3767 40.643C77.5697 40.8374 77.7574 40.9347 77.9396 40.9347C78.1005 40.9347 78.2185 40.8752 78.2935 40.7564C78.3793 40.6376 78.4597 40.3998 78.5347 40.0433L78.7117 39.1032C78.8082 38.5738 78.9851 38.1794 79.2424 37.9201C79.4998 37.6608 79.918 37.4879 80.497 37.4015V37.3204C79.9287 37.2232 79.4623 37.0125 79.0977 36.6883C78.7438 36.3642 78.5669 35.8888 78.5669 35.2621C78.5669 34.5381 78.8082 33.9925 79.2907 33.6251C79.7732 33.247 80.556 33.0579 81.639 33.0579H86.2391V33.3982L85.081 33.5603V40.9509L86.2391 41.1292V41.4533H82.3145V41.1292L83.4726 40.9509V37.596H81.9928C81.5318 37.596 81.1725 37.6986 80.9152 37.9039C80.6686 38.1092 80.5078 38.4496 80.4327 38.925L80.1914 40.3026C80.1057 40.778 79.9501 41.1183 79.725 41.3237C79.4998 41.5182 79.1514 41.6154 78.6795 41.6154ZM83.4726 37.1908V33.4631H82.1215C81.4996 33.4631 81.0385 33.6036 80.7383 33.8844C80.4487 34.1653 80.304 34.6138 80.304 35.2297V35.4404C80.304 36.0454 80.4542 36.4885 80.7543 36.7694C81.0546 37.0503 81.4675 37.1908 81.9928 37.1908H83.4726Z" fill="#0C0C0C"/>
</g>
<defs>
<clipPath id="clip0_101_2573">
<rect width="200" height="50" fill="white"/>
</clipPath>
</defs>
</svg>
